<?xml version="1.0" encoding="utf-8"?>
<!-- Generator: Adobe Illustrator 27.1.0, SVG Export Plug-In . SVG Version: 6.00 Build 0)  -->
<svg version="1.1" id="Icons" xmlns="http://www.w3.org/2000/svg" xmlns:xlink="http://www.w3.org/1999/xlink" x="0px" y="0px"
	 viewBox="0 0 22 22" style="enable-background:new 0 0 22 22;" xml:space="preserve">
<style type="text/css">
	.st0{fill:#232323;}
</style>
<path class="st0" d="M11,0C4.9,0,0,4.9,0,11s4.9,11,11,11s11-4.9,11-11S17.1,0,11,0z M16.7,8.7l-7,7c-0.4,0.4-1,0.4-1.4,0l-3-3
	c-0.4-0.4-0.4-1,0-1.4c0.4-0.4,1-0.4,1.4,0L9,13.6l6.3-6.3c0.4-0.4,1-0.4,1.4,0C17.1,7.7,17.1,8.3,16.7,8.7z"/>
</svg>
